<svg width="24" height="24" viewBox="0 0 24 24" fill="none" xmlns="http://www.w3.org/2000/svg">
<path fill-rule="evenodd" clip-rule="evenodd" d="M13.8423 12.0073C13.8423 5.98427 13.856 1.04556 13.8742 1.03189C13.8878 1.01367 14.799 1 15.8925 1C17.478 1 17.97 1.01367 18.2889 1.06834C20.6672 1.47838 22.4759 3.26889 22.927 5.64257C22.9907 5.97515 22.9998 6.75423 22.9998 11.98C22.9998 17.5626 23.0065 18.2193 22.8305 18.8226C22.8001 18.9269 22.7642 19.0295 22.7219 19.1557C22.6445 19.3789 22.4941 19.7388 22.3802 19.953C21.4918 21.625 19.8608 22.7504 18.011 22.9599C17.5737 23.0055 14.0382 23.0237 13.9152 22.9782C13.8468 22.9508 13.8423 21.9439 13.8423 12.0073ZM20.2708 12.3763C20.0339 11.6838 19.4507 11.1417 18.74 10.9549C17.601 10.6587 16.4164 11.3148 16.0747 12.431C15.9608 12.7864 15.9563 13.3695 16.0565 13.7158C16.3891 14.8457 17.601 15.5336 18.74 15.2375C19.4416 15.0507 19.9883 14.545 20.2662 13.8251C20.4166 13.4333 20.4212 12.8046 20.2708 12.3763Z" fill="#a643fa"/>
<path d="M6.10147 5.56052C5.81444 5.61519 5.37706 5.83388 5.14471 6.0389C4.66633 6.45349 4.42941 7.04122 4.46586 7.73373C4.48409 8.09365 4.50687 8.18933 4.65266 8.48091C4.86679 8.92285 5.19027 9.24632 5.6322 9.46501C5.93745 9.61536 6.0149 9.63358 6.41127 9.64725C6.7712 9.66092 6.89877 9.64725 7.14023 9.56524C8.12889 9.23265 8.72572 8.27134 8.55715 7.28724C8.36124 6.11635 7.24958 5.33272 6.10147 5.56052Z" fill="#a643fa"/>
<path fill-rule="evenodd" clip-rule="evenodd" d="M5.70994 1.0729C3.5185 1.46471 1.75533 3.08665 1.1995 5.21886C0.999033 5.98883 0.985365 6.43987 1.00814 12.4128C1.02181 17.8982 1.02637 18.0258 1.11749 18.4495C1.6232 20.732 3.24514 22.3585 5.55048 22.8961C5.85117 22.9645 6.23388 22.9782 8.69868 22.9918C11.25 23.01 11.5143 23.0055 11.5826 22.9372C11.651 22.8688 11.6555 21.9895 11.6555 12.021C11.6555 4.63114 11.6419 1.15035 11.61 1.08657C11.5644 1.00456 11.4869 1 8.81713 1.00456C6.64847 1.00911 5.99697 1.02278 5.70994 1.0729ZM9.83312 21.2378L7.97883 21.215C6.27033 21.1968 6.08809 21.1876 5.74639 21.1011C4.27935 20.7229 3.19047 19.593 2.88522 18.1215C2.78499 17.6613 2.78499 6.32597 2.88066 5.87493C3.15402 4.59469 4.04244 3.53314 5.24067 3.05476C5.84206 2.81329 6.11998 2.78596 8.06995 2.7814L9.83312 2.77684V21.2378Z" fill="#a643fa"/>
</svg>
