<svg xmlns="http://www.w3.org/2000/svg" viewBox="0 0 971.91 202.52"><path d="M970.71,46.5H349.4V172.27H971.91V46.5ZM945.2,157h10.88v1.61h-4.49V171H949.7v-12.4h-4.49Z" fill="none"/><path d="M949.7,171h1.89v-12.4h4.49V157H945.2v1.61h4.49Z"/><path d="M970.71,46.5H349.4V172.27H971.91V46.5ZM957.82,157h2.62l4.06,12,3.93-12h2.28v14h-1.57V159.58L965.37,171h-1.88l-3.77-11.38V171h-1.89V157Z" fill="none"/><path d="M959.72,159.58,963.49,171h1.88l3.77-11.38V171h1.57V157h-2.28l-3.93,12-4.07-12h-2.61v14h1.9ZM648.09,137.4V79.48c0-11.82,5.52-20.28,17.28-20.28h72.56a.94.94,0,0,0,.88-.88V46.79a1,1,0,0,0-.07-.29H650c-19.23,2.44-28.63,15.85-28.63,33V137.4c0,11.82-5.67,20.28-17.27,20.28H527.49a.85.85,0,0,0-.87.88v11.52a1,1,0,0,0,.64,1h87c22.67-.59,33.83-15.07,33.83-33.65ZM350,171.05h25.48a1,1,0,0,0,.63-1V133.17c0-11.82,6.68-20,16.4-20H497.44c23.66,0,35.13-14.59,35.13-33.7,0-17.13-9.39-30.54-28.63-33H349.52a.62.62,0,0,0-.12.29V58.32a.78.78,0,0,0,.87.88H488.59c11.75,0,17.27,8.46,17.27,20.28s-5.52,20.28-17.27,20.28H379.15c-17,0-29.75,14.45-29.75,33.41v36.92a.92.92,0,0,0,.59,1Z"/><path d="M760.86,144.26H877.71a1,1,0,0,0,.88-.87V71.45a1.32,1.32,0,0,0-2.19-1.16L760.15,142.22c-.74.44-1,.87-.87,1.46.13.29.58.58,1.58.58Z" fill="none"/><path d="M738.38,157.69H877.72a.66.66,0,0,1,.71.58v11.82a.84.84,0,0,0,.87.87h25.12a.83.83,0,0,0,.87-.87V158.56a.94.94,0,0,1,.87-.87h25a.84.84,0,0,0,.87-.88V145.14a.84.84,0,0,0-.87-.88h-25a.94.94,0,0,1-.87-.87V59.2c0-6.87-2.56-11.25-6.85-12.7h-7.27a27.78,27.78,0,0,0-7.36,3.21L733.74,142.36c-5.81,3.65-7.85,7.73-6.39,10.8,1.16,2.63,4.49,4.53,11,4.53Zm21.77-15.47L876.4,70.29a1.32,1.32,0,0,1,2.19,1.16v71.94a.94.94,0,0,1-.87.87H760.87c-1,0-1.46-.29-1.59-.58-.16-.59.13-1,.87-1.46Z"/><path d="M97.35,0c11.32,2.11,22.45,5.13,33.52,8.27C137.2,10.11,143.52,12,149.8,14c9.86,3.14,19.68,6.69,28.61,12a56.22,56.22,0,0,1,11.12,8.52,42.33,42.33,0,0,1,8.61,12.09c3.89,8.13,5.23,17.21,5.62,26.14a79.69,79.69,0,0,1-.91,17.46,41.37,41.37,0,0,1-5.19,14.28,25.93,25.93,0,0,1-9.63,9.29,25.41,25.41,0,0,1-12.53,3c-6.58.07-13-2-18.86-4.77-.1-19.63,0-39.25,0-58.87,0-3.55.2-7.13-.52-10.64a12.49,12.49,0,0,0-3.74-7.29,10.9,10.9,0,0,0-5.08-2.38,5.22,5.22,0,0,0-5,1.93c-1.92,2.4-2.42,5.57-2.5,8.55q0,78.8,0,157.58L97.35,187.43q0-93.72,0-187.43ZM33.83,132.93c18.43-6.53,36.83-13.11,55.26-19.61,0,7.23,0,14.46,0,21.7A26.41,26.41,0,0,1,89,138c-14.57,5.16-29.11,10.41-43.66,15.61a15.5,15.5,0,0,0-5.64,3.17,2.72,2.72,0,0,0-.92,2.82A5,5,0,0,0,41.7,162c3.19,1.3,6.68,1.48,10.08,1.64a56.71,56.71,0,0,0,11.32-1.17,45.69,45.69,0,0,0,7.31-2.24q9.33-3.37,18.67-6.74c0,6.12,0,12.24,0,18.37,0,1.22.06,2.45-.07,3.67a145.1,145.1,0,0,1-23.16,2.43,138.21,138.21,0,0,1-46.22-7,41.53,41.53,0,0,1-13.79-6.39A15.61,15.61,0,0,1,.59,158a9.09,9.09,0,0,1,.27-7.09,13.5,13.5,0,0,1,4.8-5.26,79.88,79.88,0,0,1,14.71-7.71c4.41-1.88,9-3.34,13.46-5Z"/><path d="M182.06,124.69c4.18-.49,8.39-.6,12.59-.75a138.36,138.36,0,0,1,40.93,5.92c2.59.78,5.1,1.81,7.68,2.63,4.61,1.68,9.22,3.72,12.91,7,2.21,2,4.13,4.75,4.15,7.85a9.81,9.81,0,0,1-2.65,6.83c-3.13,3.5-7.25,5.91-11.4,8-4.41,2.25-9.15,3.7-13.78,5.41q-42.36,15.21-84.71,30.43c0-7.92,0-15.82,0-23.73,0-.31-.13-.86.32-.95q32.22-11.46,64.45-23c2.9-1.09,6-1.87,8.5-3.84,1-.8,2-2.06,1.5-3.42a5.13,5.13,0,0,0-2.89-2.33,29.5,29.5,0,0,0-10.13-1.62,51.07,51.07,0,0,0-15.86,2.41c-15.3,5.37-30.57,10.79-45.88,16.14q0-12.74,0-25.47a157.73,157.73,0,0,1,34.28-7.58Zm62.78,58.5a9.73,9.73,0,1,1-7.82,5.87,9.72,9.72,0,0,1,7.82-5.87Zm-.73,1.79a8.08,8.08,0,0,0-2.53,14.64,8.07,8.07,0,0,0,12.13-8.94,8.3,8.3,0,0,0-4-5,8.12,8.12,0,0,0-5.6-.71Z"/><path d="M241.8,187.25H247a3.76,3.76,0,0,1,2.77,1,3.41,3.41,0,0,1,.56,2.94c-.11.66-.68,1.05-1.1,1.5.36.33.83.63.92,1.16a23.72,23.72,0,0,0,.31,3,2.43,2.43,0,0,1,.42,1.12c-.72,0-1.44,0-2.16,0-.49-1.15-.13-2.43-.43-3.61a1.08,1.08,0,0,0-1.09-.77c-1.18-.05-2.37,0-3.54,0,0,1.47,0,2.94,0,4.4h-1.84c0-3.6,0-7.19,0-10.78Zm1.89,1.71v3c1.05,0,2.1,0,3.16,0a1.8,1.8,0,0,0,1.47-.54,1.87,1.87,0,0,0,0-1.9A1.49,1.49,0,0,0,247,189c-1.12,0-2.24,0-3.35,0Z"/></svg>