<svg xmlns="http://www.w3.org/2000/svg" viewBox="0 0 922.59 189.54"><path d="M898.21,150.13h10.12v1.55h-4.15v11.67h-1.82V151.68h-4.15v-1.55Zm21.79,0-.26.78-3.37,10.63-3.89-11.15h-2.34v13H912V152.72l3.63,10.63h1.81L921,152.72v10.63h1.56v-13H920ZM235.73,184.35c.26.26.26.78.52,1h-2.08c-.51-1,0-2.33-.51-3.37,0-.52-.52-.78-1-.78h-3.37v4.15h-1.82V175.28h4.93a3,3,0,0,1,2.59,1,2.81,2.81,0,0,1,.52,2.85,1.73,1.73,0,0,1-1,1.3c.26.25.78.51.78,1C235.73,182.28,235.47,183.32,235.73,184.35Zm-2.07-7c-.26-.51-.78-.51-1.3-.51h-3.11v2.85h2.85c.52,0,1,0,1.3-.52A1.12,1.12,0,0,0,233.66,177.35ZM146.79,39.93c.78,3.37.52,6.74.52,9.85v55a42.1,42.1,0,0,0,17.63,4.41,23.9,23.9,0,0,0,11.93-2.85A28.81,28.81,0,0,0,186,97.75a35.5,35.5,0,0,0,4.92-13.22,68.94,68.94,0,0,0,.78-16.34c-.26-8.29-1.55-16.85-5.18-24.37a43.47,43.47,0,0,0-8-11.41,62.08,62.08,0,0,0-10.37-8c-8.3-4.92-17.64-8.29-27-11.15L123.2,7.78C112.83,4.93,102.2,2.07,91.57,0V175c13.22,4.15,26.7,8.3,39.93,12.45V40.19a12.71,12.71,0,0,1,2.33-8,5.16,5.16,0,0,1,4.67-1.81,8,8,0,0,1,4.66,2.33A15.84,15.84,0,0,1,146.79,39.93Zm-104.23,104C56.3,139,70,134.05,83.79,129.39V106.31c-17.38,6-34.75,12.19-52.12,18.41-4.15,1.55-8.56,2.85-12.71,4.67-4.92,2.07-9.59,4.14-13.74,7.26-1.81,1.29-3.63,2.85-4.41,4.92a8.72,8.72,0,0,0-.26,6.74,14.75,14.75,0,0,0,4.93,6.23,39.49,39.49,0,0,0,13,6A130.46,130.46,0,0,0,62,167a124,124,0,0,0,21.78-2.33V144.16c-6,2.08-11.67,4.15-17.64,6.23a54.54,54.54,0,0,1-7,2.07,47.58,47.58,0,0,1-10.63,1c-3.11-.26-6.48-.26-9.59-1.56-1-.51-2.33-1-2.59-2.33a2.9,2.9,0,0,1,.77-2.59A10.57,10.57,0,0,1,42.56,143.91ZM238.84,175a9.31,9.31,0,0,1,1,9.33,9.54,9.54,0,0,1-8.3,5.19,9.38,9.38,0,0,1-7.78-4.41,9.71,9.71,0,0,1-.52-8,9.28,9.28,0,0,1,7.26-5.44A8.78,8.78,0,0,1,238.84,175Zm0,3.37a7.74,7.74,0,0,0-3.89-4.67,9.16,9.16,0,0,0-5.18-.77,8.65,8.65,0,0,0-4.41,2.85,7.11,7.11,0,0,0-1.3,6,7.64,7.64,0,0,0,3.37,4.67,7.89,7.89,0,0,0,8.56-.26C238.58,184.87,239.62,181.24,238.84,178.39ZM612,43.82c-18.15,2.33-27,14.78-27,30.86v54.19c0,11.15-5.44,18.93-16.33,18.93H496.58a.68.68,0,0,0-.78.77v10.89c0,.52.26.78.52.78h81.93c21.26-.52,31.89-14,31.89-31.37V74.68c0-11.15,5.19-18.93,16.34-18.93h68.45a.83.83,0,0,0,.78-.78V43.82Zm-137.42,0H329.07V55a.69.69,0,0,0,.78.78H460c11.15,0,16.33,7.78,16.33,18.93S471.17,93.6,460,93.6H357.08c-16.08,0-28,13.49-28,31.12V159.2c0,.52.26.78.52.78h24.12c.26,0,.52-.52.52-.78V124.72c0-11.15,6.22-18.67,15.55-18.67h98.79c22.3,0,33.19-13.74,33.19-31.37C501.5,58.6,492.43,46.15,474.54,43.82ZM229,124.2c-2.34-.78-4.93-1.82-7.26-2.33a128.89,128.89,0,0,0-38.64-5.45c-3.89.26-8,.26-11.92.78a157.56,157.56,0,0,0-32.41,7v23.85c14.52-4.92,28.78-10.11,43.3-15a47.88,47.88,0,0,1,15-2.34,24.76,24.76,0,0,1,9.59,1.56c1,.52,2.33,1,2.59,2.07.52,1.3-.52,2.34-1.29,3.11-2.34,1.82-5.19,2.6-8,3.63-20.23,7.26-40.45,14.26-60.68,21.52-.51,0-.25.52-.25.78v22c26.7-9.59,53.15-18.93,79.86-28.52,4.4-1.56,8.81-2.85,13-4.93,3.89-2.07,7.78-4.14,10.63-7.52a9.64,9.64,0,0,0,2.59-6.48c0-2.85-1.81-5.44-3.88-7.26C237.55,127.57,233.4,125.76,229,124.2ZM857,92.83H747.05c-3.37,0-6.74-3.38-6.74-6.49V56.78H887.07V43.56H717V92.83c0,6.48,6.74,13.22,13.23,13.22h120c6.74,0,15.81,9.59,16.59,19.71.78,10.89-10.11,23.07-16.59,23.07H717v13.23H857c16.59,0,33.45-13.23,33.45-36C890.44,102.68,870.21,92.83,857,92.83Z"/></svg>