<svg width="24" height="24" viewBox="0 0 24 24" fill="none" xmlns="http://www.w3.org/2000/svg">
<path d="M23 12C23 14.1756 22.3549 16.3023 21.1462 18.1113C19.9375 19.9202 18.2195 21.3301 16.2095 22.1627C14.1995 22.9952 11.9878 23.2131 9.85401 22.7886C7.72022 22.3642 5.76021 21.3166 4.22183 19.7782C2.68345 18.2398 1.6358 16.2798 1.21137 14.146C0.786929 12.0122 1.00477 9.80047 1.83733 7.79048C2.66989 5.78049 4.07979 4.06253 5.88873 2.85383C7.69767 1.64514 9.82441 1 12 1C14.9174 1 17.7153 2.15893 19.7782 4.22183C21.8411 6.28473 23 9.08262 23 12ZM10.3096 6.52495V16.2322L12.4928 16.9293V8.78764C12.4928 8.40559 12.6627 8.14984 12.9356 8.23717C13.2912 8.33853 13.3614 8.6894 13.3614 9.06989V12.3228C14.7227 12.984 15.794 12.3228 15.794 10.5763C15.794 8.78452 15.1703 7.99079 13.3177 7.35143C12.3323 7.01631 11.3279 6.74033 10.3096 6.52495ZM12.9076 15.5024V16.7749L17.6856 15.0564C17.6856 15.0564 18.328 14.8178 18.59 14.4872C18.852 14.1566 18.735 13.6732 17.7058 13.3442C16.7353 13 15.7002 12.8764 14.6759 12.9824C14.1231 13.0403 13.5779 13.1563 13.0495 13.3286L12.9138 13.3754V14.6946L15.2529 13.865C15.6739 13.7195 16.1276 13.6963 16.5612 13.798C16.884 13.904 16.8232 14.1099 16.424 14.2502L12.9076 15.5024ZM6.30196 15.3761C7.38609 15.7385 8.54211 15.8316 9.67026 15.6474C9.74044 15.6365 9.81685 15.6256 9.88546 15.6116V14.4701L8.8048 14.8646C8.38416 15.0093 7.93126 15.0325 7.49802 14.9317C7.17211 14.8256 7.23448 14.6198 7.63213 14.4779L9.88858 13.6686V12.3914L6.75575 13.5111C6.33048 13.6535 5.92574 13.8512 5.55189 14.099C5.06848 14.4576 5.24001 15.0814 6.30352 15.3808L6.30196 15.3761ZM15.1562 17.4797H15.2747V16.6813H15.5695V16.5784H14.8599V16.6813H15.1562V17.4797ZM16.1683 17.4797L16.4147 16.7499V17.4813H16.5316V16.5737H16.3757L16.1137 17.3425L15.8548 16.5737H15.6833V17.475H15.8018V16.7499L16.0482 17.4813L16.1683 17.4797Z" fill="#a643fa"/>
</svg>
