<svg width="24" height="24" viewBox="0 0 24 24" fill="none" xmlns="http://www.w3.org/2000/svg">
<path d="M12.0006 9.82173C12.0133 9.82173 12.0272 9.83214 12.0353 9.83908C15.327 12.3417 20.9609 18.529 19.241 20.2787L19.2433 20.2764L19.2421 20.2787H19.2398C17.2376 22.036 14.6635 23.0034 11.9994 23C9.46823 23.003 7.01833 22.1301 5.06251 20.5364L4.75786 20.2787C3.04144 18.529 8.67416 12.3417 11.9624 9.83908C11.9717 9.83214 11.9867 9.82173 12.0006 9.82173ZM19.7273 4.17181L19.7291 4.17226V4.17342C21.8255 6.23749 23.0042 9.05755 23 11.9994C23.0033 14.407 22.213 16.7486 20.7515 18.662C20.7376 18.6805 20.7134 18.6909 20.6925 18.6805C20.674 18.6689 20.6729 18.6446 20.6798 18.6238C21.5184 16.0309 17.2354 9.74193 15.0217 7.10628C15.0136 7.09703 15.0055 7.08662 15.0055 7.07506C15.0055 7.05887 15.0147 7.0473 15.0263 7.03805C18.6701 3.41273 19.6954 4.14815 19.7273 4.17181ZM4.28326 4.16472C4.40296 4.09104 5.50125 3.5833 8.97834 7.04383C8.98875 7.05309 8.99916 7.06465 8.99916 7.07968C8.99916 7.09241 8.98991 7.10281 8.98297 7.11207C6.76805 9.74656 2.48164 16.0309 3.32019 18.6238C3.32828 18.6446 3.32713 18.6689 3.30747 18.6805C3.28665 18.6909 3.26351 18.6805 3.24848 18.662C1.78697 16.7486 0.996734 14.407 1.00001 11.9994C0.996403 9.05744 2.17544 6.23745 4.27208 4.17342V4.17226L4.28326 4.16472ZM12.0006 1C14.2201 1 16.0464 1.60832 17.7304 2.60984C17.7513 2.62025 17.757 2.64338 17.7489 2.66419C17.7409 2.68385 17.7177 2.68848 17.6957 2.6827C15.5664 2.22241 12.3291 4.06239 12.0237 4.24628C12.0168 4.2509 12.0098 4.25553 12.0006 4.25553C11.9902 4.25553 11.9832 4.2509 11.9763 4.24628C11.1643 3.78021 8.17218 2.212 6.28806 2.69426C6.26724 2.69889 6.24411 2.69542 6.23486 2.6746C6.2267 2.6544 6.23457 2.63127 6.25336 2.62025C7.93739 1.60832 9.78682 1 12.0006 1Z" fill="#a643fa"/>
</svg>
