<svg width="24" height="24" viewBox="0 0 24 24" fill="none" xmlns="http://www.w3.org/2000/svg">
<path d="M10.7952 9C11.0919 9 11.1813 8.87064 11.1813 8.54119V6.4705C11.1813 6.14105 11.0919 5.98827 10.7952 5.98827H10.3629V9H10.7952Z" fill="#a643fa"/>
<path d="M9.80328 16.5913L9.81327 16.621L9.82638 16.6503H9.27054L9.28364 16.621L9.29363 16.5913L9.30674 16.5586L9.32016 16.5293L9.32983 16.4996L9.34294 16.4703L9.35605 16.4375L9.36916 16.4079L9.37915 16.3786L9.39225 16.3492L9.40536 16.3196L9.41535 16.2869L9.42846 16.2575L9.44156 16.2279L9.45155 16.1985L9.46466 16.1689L9.47777 16.1362L9.49088 16.1068L9.50086 16.0772L9.51397 16.0476L9.52708 16.0151L9.53707 15.9855L9.55017 15.9558L9.56328 15.9855L9.57327 16.0151L9.58606 16.0476L9.59948 16.0772L9.60947 16.1068L9.62258 16.1362L9.63569 16.1689L9.64536 16.1985L9.65878 16.2279L9.67189 16.2575L9.68157 16.2869L9.69499 16.3196L9.70466 16.3492L9.73088 16.4079L9.74087 16.4375L9.75397 16.4703L9.76708 16.4996L9.77707 16.5293L9.79018 16.5586L9.80328 16.5913Z" fill="#a643fa"/>
<path fill-rule="evenodd" clip-rule="evenodd" d="M3 3.64575C3 2.44352 3.43544 2 4.61514 2H19.3849C20.5646 2 21 2.44352 21 3.64575V18.1528C21 18.289 21 19.2302 20.0736 19.7274C19.1471 20.2246 12.8245 22.7859 12.8245 22.7859C12.4524 22.9598 12.2725 23.005 12 22.9996C11.6941 22.9996 11.5794 22.9587 11.1718 22.7859C11.1718 22.7859 4.8535 20.1416 3.92675 19.7274C3.07728 19.3302 3.04347 18.8776 3.02295 18.6028C3.02108 18.5778 3.01932 18.5543 3.01707 18.5324C3.00528 18.4151 3 18.289 3 18.1528V3.64575ZM8.72765 8.18092V9.41498H7.09575V11.8861H8.72765V13.1176H5.86383V4.88235H8.72765V6.1158H7.09575V8.18092H8.72765ZM16.4317 12.0509C16.7491 12.0509 16.9107 11.9007 16.9107 11.5768V9.82473H18.1374V11.6346C18.1374 12.6409 17.6293 13.1226 16.6058 13.1226H15.9821C14.9588 13.1226 14.4553 12.6409 14.4553 11.6346V6.53038C14.4553 5.52407 14.9588 4.88982 15.9821 4.88982H16.5941C17.6173 4.88982 18.1374 5.39866 18.1374 6.40465V8.17831L16.9107 8.17612V6.53038C16.9107 6.1216 16.7941 5.99021 16.408 5.99021H16.1964C15.867 5.99021 15.6864 6.20648 15.6864 6.53038V11.5768C15.6864 11.9007 15.867 12.0509 16.1964 12.0509H16.4317ZM12.8188 13.1176H14.0462V4.88235H12.8188V13.1176ZM9.13677 13.1176V4.88235H10.9819C11.9376 4.88235 12.4097 5.38816 12.4097 6.41171V8.6003C12.4097 9.62353 11.9376 10.1293 10.9819 10.1293H10.3629V13.1176H9.13677ZM18.3354 16.9807L18.3388 16.948L18.3419 16.9118V16.8334L18.3388 16.7976L18.3354 16.7649L18.3223 16.6994L18.3157 16.6701L18.306 16.6407L18.2961 16.6111L18.2829 16.5851L18.2664 16.5555L18.2499 16.5296L18.2302 16.5002L18.2105 16.474L18.1874 16.4511L18.1643 16.4249L18.1119 16.3792L18.0854 16.3628L18.0592 16.3431L18.033 16.327L17.9737 16.2943L17.9409 16.2779L17.9078 16.2646L17.875 16.2483L17.8388 16.2356L17.8092 16.2257L17.7798 16.2158L17.7468 16.2063L17.7171 16.1964L17.6516 16.1766L17.6185 16.1701L17.5823 16.1603L17.5495 16.1507L17.5133 16.1439L17.4771 16.1343L17.4047 16.1146L17.3719 16.1081L17.3423 16.0982L17.3126 16.0917L17.2864 16.0818L17.2602 16.0753L17.2206 16.0624L17.1844 16.0491L17.1516 16.0361L17.1254 16.0198L17.0954 16.0034L17.0726 15.9805L17.0592 15.9611L17.043 15.925L17.0396 15.8827V15.8759L17.043 15.8434L17.0561 15.8138L17.0758 15.7845L17.1054 15.7582L17.1285 15.7453L17.1547 15.7323L17.1844 15.7258L17.2174 15.719L17.2533 15.7125H17.3257L17.3554 15.7159L17.3885 15.719L17.4212 15.7224L17.4868 15.7354L17.5199 15.7419L17.5526 15.7517L17.5857 15.7616L17.6216 15.7715L17.6481 15.7845L17.6778 15.7944L17.704 15.8073L17.7337 15.8203L17.7599 15.8336L17.7895 15.8465L17.8157 15.8629L17.8454 15.8759L17.8719 15.8956L17.8981 15.912L17.9275 15.9284L17.954 15.9478L17.9737 15.9219L17.9902 15.8956L18.0099 15.8694L18.0295 15.8434L18.0492 15.8138L18.0657 15.7879L18.0854 15.7616L18.1054 15.7354L18.1216 15.7094L18.1413 15.6832L18.1612 15.6569L18.1778 15.631L18.1971 15.6014L18.2171 15.5754L18.2368 15.5492L18.2533 15.5229L18.273 15.4967L18.2205 15.4578L18.194 15.438L18.1678 15.4216L18.1381 15.4022L18.1119 15.3858L18.0526 15.3531L18.0264 15.3398L17.9968 15.3238L17.9637 15.3105L17.9343 15.2975L17.9047 15.2845L17.875 15.2747L17.842 15.2614L17.8126 15.2549L17.783 15.245L17.7499 15.2354L17.7205 15.229L17.6875 15.2222L17.6547 15.2157L17.625 15.2092L17.5923 15.2027L17.5561 15.1993L17.5233 15.1928L17.4868 15.1897H17.454L17.3816 15.183H17.2402L17.1747 15.1897L17.1416 15.1928L17.1088 15.1962L17.0792 15.2027L17.0464 15.2092L17.0165 15.2157L16.9871 15.2222L16.9609 15.229L16.9309 15.2385L16.8982 15.2518L16.8654 15.2614L16.8358 15.2747L16.8061 15.291L16.7765 15.304L16.7468 15.3204L16.7206 15.3367L16.6944 15.3562L16.6678 15.3759L16.6451 15.3923L16.6185 15.4152L16.5958 15.4414L16.5727 15.4643L16.5496 15.4902L16.5102 15.5427L16.4937 15.572L16.4775 15.6014L16.464 15.631L16.4378 15.6897L16.4313 15.719L16.4213 15.7486L16.4082 15.8073L16.4047 15.84L16.4016 15.8694L16.3982 15.9021V15.9775L16.4047 16.046L16.4082 16.0787L16.4147 16.1081L16.4213 16.1408L16.4313 16.1667L16.441 16.1964L16.4509 16.2223L16.464 16.2452L16.4806 16.2745L16.4968 16.3008L16.5134 16.3236L16.533 16.3465L16.553 16.3693L16.5758 16.3922L16.5989 16.415L16.622 16.4348L16.6482 16.4511L16.6747 16.4706L16.704 16.487L16.7306 16.5033L16.7633 16.5197L16.793 16.5361L16.8258 16.549L16.8588 16.5623L16.8916 16.5753L16.9278 16.5882L16.9871 16.608L17.0165 16.6179L17.0495 16.6244L17.0792 16.6342L17.112 16.6438L17.1447 16.6503L17.1778 16.6602L17.2106 16.6667L17.2468 16.6765L17.2799 16.683L17.3158 16.6929L17.3488 16.6994L17.3816 16.7093L17.4113 16.7158L17.4409 16.7256L17.4671 16.7321L17.4902 16.7386L17.5295 16.755L17.5626 16.7683L17.5923 16.7812L17.6185 16.7942L17.6447 16.814L17.6678 16.8334L17.6843 16.8563L17.6975 16.889L17.7009 16.9282V16.9347L17.6975 16.9674L17.6875 16.9968L17.6744 17.023L17.6547 17.0459L17.6285 17.0656L17.6054 17.0786L17.5789 17.0885L17.5495 17.095L17.5199 17.1014L17.4868 17.1079L17.4506 17.1113H17.3785L17.3423 17.1079H17.3095L17.2764 17.1014L17.2402 17.0983L17.2075 17.0916L17.1747 17.0851L17.1416 17.0786L17.112 17.0687L17.0792 17.0591L17.0464 17.0493L17.0165 17.0363L16.9871 17.0264L16.9575 17.0131L16.8982 16.9872L16.872 16.9708L16.8423 16.9579L16.8161 16.9412L16.7864 16.9217L16.7599 16.9054L16.7306 16.8859L16.704 16.8661L16.6747 16.8464L16.6482 16.8269L16.6285 16.8532L16.6054 16.876L16.5858 16.9023L16.5627 16.9282L16.543 16.9511L16.5233 16.9773L16.5002 17.0036L16.4806 17.0264L16.4575 17.0523L16.4378 17.0755L16.4147 17.1014L16.3951 17.1277L16.3754 17.1505L16.3523 17.1768L16.3327 17.2027L16.3096 17.2256L16.2899 17.2518L16.3161 17.2747L16.3392 17.2944L16.3654 17.3139L16.3916 17.3336L16.4182 17.3531L16.4444 17.3729L16.4968 17.4056L16.5268 17.422L16.553 17.438L16.5823 17.4544L16.6123 17.4677L16.6416 17.4837L16.6713 17.4967L16.7009 17.51L16.7337 17.5229L16.7633 17.5328L16.7961 17.5427L16.8258 17.5557L16.8588 17.5655L16.8916 17.5751L16.9213 17.5819L16.954 17.5915L16.9871 17.5983L17.0857 17.6177L17.1185 17.6211L17.1516 17.6276L17.1875 17.6307L17.2533 17.6375H17.2895L17.3223 17.6406H17.4606L17.5295 17.6341L17.5626 17.6307L17.625 17.6242L17.6581 17.6177L17.6875 17.6112L17.7171 17.6048L17.7499 17.5983L17.7798 17.5884L17.8454 17.5686L17.8782 17.5557L17.9112 17.5427L17.9409 17.5263L17.9702 17.513L18.0002 17.4967L18.0264 17.4772L18.0526 17.4612L18.0788 17.4414L18.1019 17.422L18.1281 17.3988L18.1709 17.3565L18.1906 17.3336L18.2071 17.3074L18.2268 17.2811L18.2598 17.229L18.273 17.1996L18.2861 17.1734L18.2992 17.144L18.3092 17.1113L18.3157 17.082L18.3254 17.0493L18.3323 17.0165L18.3354 16.9807ZM14.1477 17.6014H16.0652V17.0622H14.7759V16.6571H15.9204V16.1507H14.7759V15.7616H16.0486V15.2222H14.1477V17.6014ZM13.0272 17.6014H13.662V15.2222H12.9879L12.9714 15.2484L12.9551 15.2778L12.9352 15.3037L12.9186 15.3333L12.9024 15.3593L12.8859 15.3889L12.8662 15.4149L12.8497 15.4442L12.8331 15.4704L12.8169 15.4964L12.7972 15.5257L12.7807 15.552L12.7641 15.5813L12.7476 15.6075L12.7283 15.6366L12.6952 15.6891L12.6786 15.7181L12.6624 15.7443L12.6427 15.7737L12.6262 15.7999L12.6097 15.8289L12.5931 15.8552L12.5735 15.8845L12.5572 15.9105L12.5407 15.9367L12.5241 15.966L12.5045 15.9923L12.4879 16.0216L12.4717 16.0476L12.4552 16.0772L12.4355 16.1031L12.419 16.1325L12.4024 16.1587L12.3862 16.1325L12.3697 16.1031L12.3497 16.0772L12.3335 16.0476L12.3169 16.0216L12.3007 15.9923L12.2841 15.966L12.2642 15.9367L12.2479 15.9105L12.2314 15.8845L12.2152 15.8552L12.1986 15.8289L12.1787 15.7999L12.1624 15.7737L12.1459 15.7443L12.1297 15.7181L12.1131 15.6891L12.0931 15.6628L12.0769 15.6366L12.0604 15.6075L12.0438 15.5813L12.0242 15.552L12.0076 15.5257L11.9914 15.4964L11.9749 15.4704L11.9583 15.4442L11.9386 15.4149L11.9224 15.3889L11.9059 15.3593L11.8893 15.3333L11.8728 15.3037L11.8531 15.2778L11.8366 15.2484L11.8204 15.2222H11.1462V17.6014H11.7711V16.201L11.7907 16.2273L11.8073 16.2569L11.8269 16.2828L11.8435 16.3125L11.8631 16.3387L11.8793 16.3681L11.8993 16.3943L11.9156 16.4237L11.9355 16.4499L11.9521 16.4792L11.9717 16.5055L11.9883 16.5351L12.0076 16.5614L12.0242 16.5907L12.0438 16.617L12.0604 16.6463L12.0803 16.6725L12.1 16.7019L12.1162 16.7281L12.1359 16.7578L12.1524 16.784L12.1724 16.8133L12.1886 16.8396L12.2086 16.8689L12.2248 16.8952L12.2445 16.9245L12.261 16.9507L12.2807 16.9801L12.2972 17.0066L12.3169 17.036L12.3335 17.0622L12.3531 17.0916L12.3697 17.1178L12.3893 17.1471H12.4024L12.419 17.1212L12.4386 17.0916L12.4552 17.0653L12.4748 17.0391L12.4914 17.0097L12.511 16.9835L12.5273 16.9572L12.5438 16.9279L12.5638 16.9017L12.58 16.8757L12.6 16.8492L12.6162 16.8198L12.6359 16.7936L12.6524 16.7676L12.669 16.738L12.6886 16.7118L12.7052 16.6855L12.7248 16.6562L12.741 16.6299L12.761 16.6037L12.7776 16.5743L12.7938 16.5481L12.8138 16.5222L12.83 16.4925L12.8497 16.4663L12.8662 16.44L12.8859 16.4141L12.9024 16.3844L12.9186 16.3582L12.9386 16.3319L12.9551 16.3026L12.9748 16.2764L12.9913 16.2504L13.011 16.2208L13.0272 16.1945V17.6014ZM10.2012 17.6014H10.8788L10.8526 17.5427L10.8394 17.513L10.8295 17.4803L10.8163 17.4513L10.8032 17.422L10.7901 17.3923L10.7636 17.3336L10.7508 17.3009L10.7374 17.2716L10.7274 17.2419L10.7146 17.2126L10.7012 17.1833L10.6881 17.1539L10.675 17.1212L10.6619 17.0916L10.6353 17.0329L10.6257 17.0036L10.6126 16.9739L10.5991 16.9412L10.5467 16.8238L10.5336 16.7942L10.5236 16.7615L10.4843 16.6735L10.4709 16.6438L10.4578 16.6145L10.4446 16.5818L10.4315 16.5524L10.4215 16.5231L10.4088 16.4934L10.3953 16.4641L10.3822 16.4348L10.3691 16.402L10.356 16.3727L10.3295 16.3137L10.3198 16.2844L10.3067 16.2551L10.2933 16.2257L10.2805 16.193L10.254 16.1343L10.2408 16.1047L10.2277 16.0753L10.2177 16.046L10.2046 16.0133L10.1915 15.9839L10.1784 15.9543L10.165 15.925L10.1388 15.8663L10.1257 15.8336L10.1157 15.8042L10.1029 15.7746L10.0895 15.7453L10.0764 15.7159L10.0633 15.6863L10.0502 15.6539L10.0367 15.6242L10.0236 15.5949L10.0139 15.5655L10.0008 15.5362L9.98742 15.5066L9.97463 15.4738L9.96121 15.4445L9.93499 15.3858L9.92188 15.3562L9.91189 15.3268L9.89879 15.2941L9.87257 15.2354L9.85915 15.2058H9.25087L9.23777 15.2354L9.22466 15.2648L9.21124 15.2941L9.20156 15.3268L9.18845 15.3562L9.17535 15.3858L9.16193 15.4152L9.14913 15.4445L9.13571 15.4738L9.1226 15.5066L9.10918 15.5362L9.09951 15.5655L9.07329 15.6242L9.06018 15.6539L9.04707 15.6863L9.03365 15.7159L9.00744 15.7746L8.99745 15.8042L8.98434 15.8336L8.97124 15.8663L8.93191 15.9543L8.9188 15.9839L8.90538 16.0133L8.89571 16.046L8.86949 16.1047L8.85607 16.1343L8.82986 16.193L8.81675 16.2257L8.80364 16.2551L8.79365 16.2844L8.76744 16.3431L8.75433 16.3727L8.74091 16.402L8.7278 16.4348L8.70158 16.4934L8.6916 16.5231L8.66538 16.5818L8.65227 16.6145L8.63916 16.6438L8.62606 16.6735L8.61295 16.7028L8.59953 16.7321L8.58985 16.7615L8.57675 16.7942L8.56332 16.8238L8.51089 16.9412L8.49779 16.9739L8.4878 17.0036L8.44847 17.0916L8.43505 17.1212L8.42195 17.1539L8.40915 17.1833L8.39573 17.2126L8.38574 17.2419L8.37263 17.2716L8.35953 17.3009L8.34642 17.3336L8.3202 17.3923L8.29367 17.4513L8.28369 17.4803L8.27089 17.513L8.24436 17.572L8.23125 17.6014H8.89571L8.90882 17.572L8.9188 17.5427L8.93191 17.513L8.94502 17.4803L8.95501 17.4513L8.96811 17.422L8.98122 17.3923L8.9909 17.363L9.00432 17.3336L9.01743 17.3043L9.0271 17.2747L9.04021 17.2419L9.05363 17.2126L9.06362 17.1833L9.07641 17.1539H10.0205L10.0336 17.1833L10.0436 17.2126L10.0567 17.2419L10.0698 17.2747L10.0795 17.3043L10.0929 17.3336L10.106 17.363L10.1157 17.3923L10.1422 17.4513L10.1519 17.4803L10.165 17.513L10.1784 17.5427L10.1884 17.572L10.2012 17.6014ZM7.9382 17.3173L7.96472 17.2975L7.98782 17.2781V16.2158H6.90235V16.6929H7.38266V16.9903L7.35645 17.0066L7.33304 17.0199L7.3037 17.0329L7.27718 17.0459L7.24753 17.0591L7.21819 17.0656L7.18542 17.0755L7.15234 17.082L7.11957 17.0885L7.01408 17.0983H6.93855L6.90235 17.095L6.86958 17.0916L6.8365 17.0851L6.80373 17.0786L6.77064 17.0687L6.73787 17.0591L6.70822 17.0459L6.67857 17.0329L6.64924 17.0199L6.62271 17.0036L6.59649 16.9872L6.57028 16.9674L6.54375 16.948L6.52097 16.9282L6.50099 16.9054L6.47821 16.8825L6.45823 16.8597L6.43857 16.8334L6.42234 16.8075L6.40549 16.7812L6.38926 16.7519L6.37615 16.7222L6.36273 16.6895L6.35306 16.6636L6.34338 16.6342L6.33683 16.6046L6.32341 16.5459L6.31686 16.4836L6.31373 16.4511V16.3758L6.31998 16.3106L6.32684 16.2745L6.3334 16.2452L6.33995 16.2128L6.34994 16.18L6.36273 16.1507L6.37272 16.121L6.38614 16.0917L6.40268 16.0655L6.41891 16.0361L6.43545 16.0099L6.45168 15.987L6.47165 15.9611L6.49444 15.9379L6.51441 15.9151L6.5372 15.8956L6.56029 15.8759L6.58339 15.8564L6.63582 15.8237L6.66235 15.8073L6.69199 15.7944L6.72133 15.7811L6.75098 15.7715L6.78063 15.7616L6.81028 15.7551L6.84305 15.7486L6.8727 15.7453L6.90578 15.7419H6.97475L7.07993 15.7517L7.1127 15.7582L7.14578 15.765L7.17543 15.7715L7.20477 15.7811L7.23442 15.791L7.26095 15.8008L7.28716 15.8138L7.31369 15.8271L7.34303 15.8434L7.36924 15.8595L7.39577 15.8759L7.42199 15.8922L7.4482 15.912L7.47473 15.9284L7.50095 15.9512L7.52716 15.9707L7.54683 15.9447L7.56992 15.9219L7.58958 15.8956L7.61268 15.8694L7.63234 15.8434L7.65232 15.8203L7.6751 15.7944L7.69507 15.7681L7.71786 15.7419L7.73783 15.719L7.75749 15.6931L7.78059 15.6668L7.80025 15.644L7.81991 15.6177L7.84301 15.5915L7.86267 15.5655L7.88576 15.5427L7.90543 15.5164L7.87921 15.4967L7.85268 15.4738L7.82647 15.4544L7.80025 15.4346L7.77403 15.4183L7.74782 15.3988L7.71786 15.3824L7.69164 15.3661L7.6623 15.3497L7.63577 15.3333L7.60613 15.3204L7.57679 15.304L7.54683 15.291L7.51749 15.2778L7.48784 15.2648L7.45819 15.2549L7.43198 15.245L7.40233 15.2385L7.37268 15.229L7.34303 15.2222L7.31369 15.2157L7.28373 15.2092L7.21819 15.1962L7.18854 15.1928L7.15234 15.1864L7.11957 15.183H7.08648L7.05028 15.1799L7.01408 15.1765H6.8727L6.83993 15.1799L6.80685 15.183L6.74131 15.1897L6.70822 15.1962L6.67545 15.1993L6.64268 15.2058L6.61303 15.2157L6.57995 15.2222L6.5503 15.2321L6.52097 15.2385L6.49132 15.2518L6.45823 15.2614L6.43202 15.2713L6.39925 15.2876L6.3696 15.3006L6.33995 15.3139L6.251 15.363L6.2251 15.3793L6.19857 15.3954L6.17235 15.4152L6.14583 15.4315L6.11961 15.451L6.09652 15.4707L6.0703 15.4936L6.0472 15.513L6.00133 15.5591L5.98135 15.5819L5.95857 15.6048L5.93859 15.6276L5.91893 15.6539L5.89927 15.6798L5.87961 15.706L5.84653 15.7582L5.8303 15.7845L5.81376 15.8107L5.79721 15.84L5.78411 15.8694L5.75789 15.9284L5.74478 15.9577L5.73136 15.9904L5.72169 16.0198L5.7117 16.0525L5.70203 16.0818L5.69547 16.1146L5.68548 16.1473L5.67893 16.1766L5.6755 16.2094L5.66894 16.2418L5.66239 16.3106V16.3431L5.65927 16.3792V16.487L5.66551 16.5524L5.66894 16.5851L5.67238 16.6145L5.67893 16.6472L5.68205 16.6765L5.68861 16.7093L5.69859 16.7386L5.70515 16.7713L5.71513 16.8007L5.72169 16.8303L5.7348 16.8597L5.74478 16.8859L5.78411 16.9739L5.79721 17.0036L5.81376 17.0295L5.8303 17.0591L5.84653 17.0851L5.86307 17.1113L5.88273 17.1376L5.89927 17.1635L5.91893 17.1864L5.93859 17.2126L5.95857 17.2354L5.98135 17.2583L6.00445 17.2811L6.02754 17.3009L6.05064 17.3238L6.07342 17.3435L6.09652 17.363L6.12304 17.3827L6.14926 17.4022L6.17548 17.422L6.20169 17.438L6.22822 17.4544L6.25787 17.4707L6.28409 17.4871L6.31373 17.5035L6.34338 17.5164L6.40268 17.5427L6.43545 17.5557L6.46479 17.5655L6.49444 17.5785L6.52409 17.5884L6.55717 17.5949L6.58651 17.6048L6.61959 17.6112L6.64924 17.6177L6.71478 17.6307L6.78063 17.6375L6.88237 17.6471H7.02407L7.06027 17.644L7.09304 17.6406L7.12924 17.6375L7.16232 17.6341L7.19822 17.6307L7.2313 17.6276L7.26407 17.6211L7.29715 17.6143L7.32649 17.6078L7.35957 17.6014L7.38922 17.5915L7.42199 17.5819L7.51094 17.5523L7.54027 17.5393L7.57336 17.5263L7.603 17.513L7.63577 17.5001L7.66542 17.4837L7.69507 17.4707L7.72441 17.4544L7.75406 17.438L7.78371 17.422L7.80992 17.4056L7.83645 17.3892L7.86267 17.3695L7.88889 17.3531L7.91541 17.3336L7.9382 17.3173ZM12.0006 21.7647L15.2735 20.5294H8.72765L12.0006 21.7647Z" fill="#a643fa"/>
</svg>
